<svg width="12" height="12" viewBox="0 0 12 12" fill="none" xmlns="http://www.w3.org/2000/svg">
<g clip-path="url(#clip0)">
<path d="M11.9583 11.79H9.40187V7.23169C9.40187 6.17227 9.03162 5.44944 8.10683 5.44944C7.39999 5.44944 6.98009 5.93665 6.79496 6.40788C6.72765 6.57618 6.70997 6.81179 6.70997 7.04657V11.79H4.1544V6.1891C4.1544 5.16333 4.12074 4.30502 4.08708 3.56452H6.3069L6.42471 4.70893H6.4752C6.81179 4.17038 7.6356 3.38023 9.01563 3.38023C10.6969 3.38023 11.9583 4.50698 11.9583 6.92876V11.79ZM1.3287 2.55558C0.521719 2.55558 0 1.98421 0 1.27821C0 0.554536 0.538548 0 1.36236 0C2.18701 0 2.6919 0.554536 2.70789 1.27821C2.70789 1.98421 2.18701 2.55558 1.3287 2.55558ZM0.06816 11.79V3.56452H2.62458V11.79H0.06816Z" fill="black"/>
</g>
<defs>
<clipPath id="clip0">
<rect width="12" height="12" fill="white"/>
</clipPath>
</defs>
</svg>
