<svg width="96" height="27" viewBox="0 0 96 27" fill="none" xmlns="http://www.w3.org/2000/svg">
<path fill-rule="evenodd" clip-rule="evenodd" d="M13.7039 0C6.14794 6.69858e-07 -9.78899e-07 6.0318 0 13.5C9.93037e-07 20.967 6.14603 26.9981 13.7004 27H13.7039C21.2598 27 27.4078 20.9682 27.4078 13.5C27.4078 6.0326 21.2612 0.00129678 13.7063 1.99274e-06L13.7039 0ZM13.708 24.123C19.6872 24.1208 24.511 19.3532 24.511 13.5C24.511 12.5851 24.3932 11.6968 24.1715 10.849C24.175 10.9576 24.1768 11.0667 24.1768 11.1762C24.1768 16.7475 19.5776 21.2459 13.9267 21.2459C13.4345 21.2459 13.0354 20.8496 13.0354 20.3607C13.0354 19.8718 13.4345 19.4754 13.9267 19.4754C18.6133 19.4754 22.3942 15.7498 22.3942 11.1762C22.3942 11.0445 22.391 10.9136 22.3848 10.7834C21.47 14.2943 17.966 16.8197 13.9267 16.8197C13.4345 16.8197 13.0354 16.4233 13.0354 15.9344C13.0354 15.4455 13.4345 15.0492 13.9267 15.0492C17.8324 15.0492 20.8344 12.2389 20.8344 8.96312C20.8344 6.03899 18.4424 3.48584 15.1508 2.97133C14.6776 2.90915 14.1947 2.87705 13.7039 2.87705L13.7005 2.87705C7.72097 2.87884 2.89676 7.64656 2.89676 13.5C2.89676 14.4218 3.01639 15.3166 3.24132 16.1701C3.23445 16.0186 3.23098 15.8663 3.23098 15.7131C3.23098 10.0712 7.93973 5.53278 13.7039 5.53278C14.1961 5.53278 14.5952 5.92912 14.5952 6.41803C14.5952 6.90693 14.1961 7.30327 13.7039 7.30327C8.88447 7.30327 5.0136 11.088 5.0136 15.7131C5.0136 15.8814 5.01872 16.0485 5.02882 16.2144C5.96954 12.6918 9.57857 10.1803 13.7039 10.1803C14.1961 10.1803 14.5952 10.5767 14.5952 11.0656C14.5952 11.5545 14.1961 11.9508 13.7039 11.9508C9.65029 11.9508 6.57339 14.783 6.57339 18.0369C6.57339 21.2908 9.6503 24.1229 13.7039 24.1229C13.7052 24.1229 13.7066 24.1229 13.708 24.123Z" fill="#FDBD28"/>
<path fill-rule="evenodd" clip-rule="evenodd" d="M34.7103 16.8141C34.7103 16.8423 34.7127 16.87 34.7173 16.8969C34.8904 20.947 38.251 24.1778 42.3715 24.1778C46.6027 24.1778 50.0327 20.771 50.0327 16.5687C50.0327 12.3663 46.6027 8.95957 42.3715 8.95957C40.8202 8.95957 39.3765 9.41752 38.1702 10.2047V5.64139C38.1702 3.81383 36.6785 2.3323 34.8384 2.3323C34.7676 2.3323 34.7103 2.38928 34.7103 2.45957V16.8141ZM42.3715 20.7414C44.6918 20.7414 46.5728 18.8183 46.5728 16.4459C46.5728 14.0736 44.6918 12.1505 42.3715 12.1505C40.0512 12.1505 38.1702 14.0736 38.1702 16.4459C38.1702 18.8183 40.0512 20.7414 42.3715 20.7414Z" fill="#FDBD28"/>
<path d="M54.0618 6.38712C55.2374 6.38712 56.1138 5.55917 56.1138 4.37032C56.1138 3.20271 55.2374 2.3323 54.0618 2.3323C52.8648 2.3323 52.0098 3.20271 52.0098 4.37032C52.0098 5.55917 52.8648 6.38712 54.0618 6.38712Z" fill="#FDBD28"/>
<path d="M52.2569 23.6574C52.2569 23.9285 52.4782 24.1483 52.7512 24.1483H55.2324C55.5054 24.1483 55.7267 23.9285 55.7267 23.6574V8.84176C55.7267 8.77127 55.6692 8.71412 55.5982 8.71412C53.7529 8.71412 52.2569 10.1999 52.2569 12.0327V23.6574Z" fill="#FDBD28"/>
<path d="M65.6274 20.7186C65.9679 20.6888 66.314 20.9414 66.314 21.2809V23.5785C66.314 23.8037 66.1593 23.9977 65.935 24.0311C65.6021 24.0806 65.0568 24.1385 64.327 24.1385C61.2605 24.1385 60.2938 21.7036 60.2938 19.6712V12.6512C60.2938 12.3801 60.0725 12.1603 59.7995 12.1603H58.6825C58.4095 12.1603 58.1882 11.9405 58.1882 11.6694V9.3523C58.1882 9.08118 58.4095 8.86139 58.6825 8.86139H59.7995C60.0725 8.86139 60.2938 8.64161 60.2938 8.37048V2.54769C60.2938 2.42873 60.3909 2.3323 60.5107 2.3323C62.3072 2.3323 63.7636 3.77878 63.7636 5.5631V8.45332C63.7636 8.67869 63.9475 8.86139 64.1744 8.86139H65.8494C66.1224 8.86139 66.3437 9.08118 66.3437 9.3523V11.6694C66.3437 11.9405 66.1224 12.1603 65.8494 12.1603H64.2579C63.9849 12.1603 63.7636 12.3801 63.7636 12.6512V19.2294C63.7636 20.2603 64.2381 20.7316 65.3354 20.7316C65.4382 20.7316 65.5361 20.7267 65.6274 20.7186Z" fill="#FDBD28"/>
<path d="M72.4247 22.043C72.4247 23.2319 71.5484 24.0598 70.3728 24.0598C69.1758 24.0598 68.3208 23.2319 68.3208 22.043C68.3208 20.8754 69.1758 20.005 70.3728 20.005C71.5484 20.005 72.4247 20.8754 72.4247 22.043Z" fill="#FDBD28"/>
<path d="M78.6031 4.37032C78.6031 5.55917 77.7268 6.38712 76.5512 6.38712C75.3542 6.38712 74.4992 5.55917 74.4992 4.37032C74.4992 3.20271 75.3542 2.3323 76.5512 2.3323C77.7268 2.3323 78.6031 3.20271 78.6031 4.37032Z" fill="#FDBD28"/>
<path d="M75.2406 24.1483C74.9676 24.1483 74.7463 23.9285 74.7463 23.6574V12.0327C74.7463 10.1999 76.2422 8.71412 78.0876 8.71412C78.1586 8.71412 78.2161 8.77127 78.2161 8.84176V23.6574C78.2161 23.9285 77.9948 24.1483 77.7218 24.1483H75.2406Z" fill="#FDBD28"/>
<path fill-rule="evenodd" clip-rule="evenodd" d="M96 16.5687C96 20.771 92.57 24.1778 88.3388 24.1778C84.1076 24.1778 80.6776 20.771 80.6776 16.5687C80.6776 12.3663 84.1076 8.95957 88.3388 8.95957C92.57 8.95957 96 12.3663 96 16.5687ZM92.5401 16.4459C92.5401 18.8183 90.6591 20.7414 88.3388 20.7414C86.0185 20.7414 84.1375 18.8183 84.1375 16.4459C84.1375 14.0736 86.0185 12.1505 88.3388 12.1505C90.6591 12.1505 92.5401 14.0736 92.5401 16.4459Z" fill="#FDBD28"/>
</svg>
