<svg width="120" height="34" viewBox="0 0 120 34" fill="none" xmlns="http://www.w3.org/2000/svg">
<path fill-rule="evenodd" clip-rule="evenodd" d="M17.1299 0C7.68492 8.43525e-07 -1.22362e-06 7.5956 0 17C1.2413e-06 26.4029 7.68254 33.9976 17.1255 34H17.1299C26.5748 34 34.2597 26.4044 34.2597 17C34.2597 7.59661 26.5765 0.00163298 17.1329 2.50938e-06L17.1299 0ZM17.135 30.3771C24.609 30.3743 30.6388 24.3707 30.6388 17C30.6388 15.8479 30.4915 14.7293 30.2143 13.6617C30.2188 13.7985 30.221 13.9359 30.221 14.0738C30.221 21.0895 24.472 26.7541 17.4084 26.7541C16.7931 26.7541 16.2943 26.255 16.2943 25.6393C16.2943 25.0237 16.7931 24.5246 17.4084 24.5246C23.2666 24.5246 27.9927 19.833 27.9927 14.0738C27.9927 13.908 27.9888 13.743 27.981 13.5791C26.8375 18.0002 22.4575 21.1803 17.4084 21.1803C16.7931 21.1803 16.2943 20.6812 16.2943 20.0656C16.2943 19.4499 16.7931 18.9508 17.4084 18.9508C22.2905 18.9508 26.043 15.412 26.043 11.2869C26.043 7.60466 23.0529 4.38958 18.9385 3.74167C18.347 3.66338 17.7433 3.62295 17.1299 3.62295L17.1257 3.62295C9.65121 3.6252 3.62095 9.629 3.62095 17C3.62095 18.1607 3.77048 19.2876 4.05165 20.3624C4.04306 20.1716 4.03872 19.9798 4.03872 19.7869C4.03872 12.6822 9.92467 6.96721 17.1298 6.9672C17.7451 6.9672 18.244 7.4663 18.244 8.08196C18.244 8.69762 17.7451 9.19671 17.1298 9.19671C11.1056 9.19671 6.267 13.9627 6.267 19.7869C6.267 19.9987 6.2734 20.2092 6.28603 20.4181C7.46193 15.9823 11.9732 12.8197 17.1298 12.8197C17.7451 12.8197 18.244 13.3188 18.244 13.9344C18.244 14.5501 17.7451 15.0492 17.1298 15.0492C12.0629 15.0492 8.21673 18.6156 8.21674 22.7131C8.21674 26.8106 12.0629 30.377 17.1298 30.377C17.1316 30.377 17.1333 30.377 17.135 30.3771Z" fill="white"/>
<path fill-rule="evenodd" clip-rule="evenodd" d="M43.3878 21.1733C43.3878 21.2089 43.3908 21.2437 43.3966 21.2776C43.6129 26.3777 47.8138 30.4461 52.9644 30.4461C58.2533 30.4461 62.5409 26.1561 62.5409 20.8642C62.5409 15.5724 58.2533 11.2824 52.9644 11.2824C51.0252 11.2824 49.2207 11.8591 47.7127 12.8504V7.10398C47.7127 4.8026 45.8481 2.93697 43.548 2.93697C43.4596 2.93697 43.3878 3.00873 43.3878 3.09724V21.1733ZM52.9644 26.1188C55.8648 26.1188 58.216 23.6971 58.216 20.7097C58.216 17.7223 55.8648 15.3006 52.9644 15.3006C50.064 15.3006 47.7127 17.7223 47.7127 20.7097C47.7127 23.6971 50.064 26.1188 52.9644 26.1188Z" fill="white"/>
<path d="M67.5772 8.04303C69.0467 8.04303 70.1422 7.00043 70.1422 5.50337C70.1422 4.03304 69.0467 2.93697 67.5772 2.93697C66.081 2.93697 65.0122 4.03304 65.0122 5.50337C65.0122 7.00043 66.081 8.04303 67.5772 8.04303Z" fill="white"/>
<path d="M65.3212 29.7908C65.3212 30.1322 65.5978 30.409 65.939 30.409H69.0406C69.3818 30.409 69.6584 30.1322 69.6584 29.7908V11.1341C69.6584 11.0453 69.5865 10.9733 69.4978 10.9733C67.1911 10.9733 65.3212 12.8443 65.3212 15.1522V29.7908Z" fill="white"/>
<path d="M82.0342 26.0902C82.4598 26.0525 82.8925 26.3707 82.8925 26.7982V29.6914C82.8925 29.9751 82.6991 30.2194 82.4187 30.2614C82.0026 30.3237 81.321 30.3966 80.4088 30.3966C76.5756 30.3966 75.3672 27.3304 75.3672 24.7712V15.9312C75.3672 15.5897 75.0906 15.313 74.7494 15.313H73.3531C73.0119 15.313 72.7352 15.0362 72.7352 14.6948V11.777C72.7352 11.4356 73.0119 11.1588 73.3531 11.1588H74.7494C75.0906 11.1588 75.3672 10.882 75.3672 10.5406V3.2082C75.3672 3.05841 75.4886 2.93697 75.6383 2.93697C77.884 2.93697 79.7045 4.75846 79.7045 7.00538V10.6449C79.7045 10.9287 79.9344 11.1588 80.218 11.1588H82.3118C82.653 11.1588 82.9296 11.4356 82.9296 11.777V14.6948C82.9296 15.0362 82.653 15.313 82.3118 15.313H80.3223C79.9811 15.313 79.7045 15.5897 79.7045 15.9312V24.2148C79.7045 25.513 80.2976 26.1064 81.6692 26.1064C81.7977 26.1064 81.9201 26.1002 82.0342 26.0902Z" fill="white"/>
<path d="M90.5309 27.7579C90.5309 29.255 89.4354 30.2976 87.9659 30.2976C86.4697 30.2976 85.401 29.255 85.401 27.7579C85.401 26.2876 86.4697 25.1915 87.9659 25.1915C89.4354 25.1915 90.5309 26.2876 90.5309 27.7579Z" fill="white"/>
<path d="M98.2539 5.50337C98.2539 7.00043 97.1584 8.04303 95.6889 8.04303C94.1927 8.04303 93.124 7.00043 93.124 5.50337C93.124 4.03304 94.1927 2.93697 95.6889 2.93697C97.1584 2.93697 98.2539 4.03304 98.2539 5.50337Z" fill="white"/>
<path d="M94.0507 30.409C93.7095 30.409 93.4329 30.1322 93.4329 29.7908V15.1522C93.4329 12.8443 95.3028 10.9733 97.6095 10.9733C97.6982 10.9733 97.7701 11.0453 97.7701 11.1341V29.7908C97.7701 30.1322 97.4935 30.409 97.1523 30.409H94.0507Z" fill="white"/>
<path fill-rule="evenodd" clip-rule="evenodd" d="M120 20.8642C120 26.1561 115.712 30.4461 110.423 30.4461C105.135 30.4461 100.847 26.1561 100.847 20.8642C100.847 15.5724 105.135 11.2824 110.423 11.2824C115.712 11.2824 120 15.5724 120 20.8642ZM115.675 20.7097C115.675 23.6971 113.324 26.1188 110.423 26.1188C107.523 26.1188 105.172 23.6971 105.172 20.7097C105.172 17.7223 107.523 15.3006 110.423 15.3006C113.324 15.3006 115.675 17.7223 115.675 20.7097Z" fill="white"/>
</svg>
