<svg width="89" height="89" viewBox="0 0 89 89" fill="none" xmlns="http://www.w3.org/2000/svg">
<path fill-rule="evenodd" clip-rule="evenodd" d="M44.5 0C19.9639 2.18708e-06 -3.17873e-06 19.6938 0 44.0775C3.22464e-06 68.4573 19.9577 88.1488 44.4886 88.1549H44.5C69.0361 88.1549 89 68.4611 89 44.0775C89 19.6964 69.0404 0.00423397 44.5079 6.5063e-06L44.5 0ZM44.5134 78.7614C63.9294 78.7543 79.5935 63.1881 79.5935 44.0775C79.5935 41.0904 79.2108 38.1899 78.4909 35.4219C78.5024 35.7766 78.5081 36.1328 78.5081 36.4904C78.5081 54.6806 63.5734 69.3678 45.2236 69.3678C43.6251 69.3678 42.3293 68.0738 42.3293 66.4775C42.3293 64.8812 43.6251 63.5872 45.2236 63.5872C60.4419 63.5872 72.7195 51.423 72.7195 36.4904C72.7195 36.0604 72.7093 35.6328 72.6892 35.2077C69.7184 46.6708 58.3401 54.9162 45.2236 54.9162C43.6251 54.9162 42.3293 53.6222 42.3293 52.0259C42.3293 50.4296 43.6251 49.1355 45.2236 49.1355C57.9062 49.1355 67.6545 39.9601 67.6545 29.2645C67.6545 19.7173 59.887 11.3813 49.1985 9.70137C47.662 9.49837 46.0936 9.39356 44.5 9.39356L44.4891 9.39356C25.0719 9.39939 9.4065 24.966 9.40651 44.0775C9.40651 47.087 9.79497 50.0086 10.5254 52.7954C10.5031 52.3008 10.4918 51.8034 10.4918 51.3033C10.4918 32.8823 25.7823 18.0645 44.4999 18.0645C46.0984 18.0645 47.3942 19.3586 47.3942 20.9548C47.3942 22.5511 46.0984 23.8452 44.4999 23.8452C28.8501 23.8452 16.2804 36.2023 16.2804 51.3033C16.2804 51.8526 16.2971 52.3983 16.3299 52.9399C19.3846 41.4387 31.104 33.2387 44.4999 33.2387C46.0984 33.2387 47.3942 34.5328 47.3942 36.129C47.3942 37.7253 46.0984 39.0194 44.4999 39.0194C31.3369 39.0194 21.3455 48.2664 21.3455 58.8904C21.3455 69.5144 31.3369 78.7614 44.4999 78.7613L44.5134 78.7614Z" fill="#EE5149"/>
</svg>
