<svg width="13" height="11" viewBox="0 0 13 11" fill="none" xmlns="http://www.w3.org/2000/svg">
<g clip-path="url(#clip0)">
<path d="M11.6684 2.67117C11.6738 2.78758 11.6765 2.90492 11.6765 3.02133C11.6765 6.60092 8.99347 10.7277 4.08778 10.7277C2.58194 10.7277 1.17993 10.2786 0 9.51042C0.207639 9.53608 0.419792 9.548 0.635556 9.548C1.885 9.548 3.03514 9.11533 3.94785 8.38842C2.78146 8.36733 1.79562 7.5845 1.45618 6.50833C1.61958 6.5395 1.7866 6.55692 1.95812 6.55692C2.20187 6.55692 2.4375 6.52392 2.66139 6.46158C1.44083 6.21317 0.521806 5.11867 0.521806 3.806V3.77208C0.881111 3.97558 1.29278 4.09658 1.72972 4.11125C1.01382 3.62542 0.543472 2.79675 0.543472 1.85717C0.543472 1.36033 0.674375 0.895583 0.904583 0.495917C2.21993 2.134 4.18528 3.212 6.4016 3.32475C6.35646 3.12675 6.33299 2.91958 6.33299 2.70783C6.33299 1.21183 7.52736 0 8.99979 0C9.76715 0 10.4596 0.328167 10.9471 0.85525C11.5547 0.733333 12.1252 0.507833 12.6407 0.198C12.4412 0.8305 12.0187 1.36125 11.468 1.69583C12.0069 1.63075 12.5215 1.485 13 1.26958C12.6425 1.81225 12.1893 2.28983 11.6684 2.67117Z" fill="black"/>
</g>
<defs>
<clipPath id="clip0">
<rect width="13" height="11" fill="white"/>
</clipPath>
</defs>
</svg>
